<?xml version="1.0" encoding="UTF-8" standalone="no"?>
<svg
   xmlns:dc="http://purl.org/dc/elements/1.1/"
   xmlns:cc="http://creativecommons.org/ns#"
   xmlns:rdf="http://www.w3.org/1999/02/22-rdf-syntax-ns#"
   xmlns:svg="http://www.w3.org/2000/svg"
   xmlns="http://www.w3.org/2000/svg"
   xmlns:sodipodi="http://sodipodi.sourceforge.net/DTD/sodipodi-0.dtd"
   xmlns:inkscape="http://www.inkscape.org/namespaces/inkscape"
   width="17.25mm"
   height="115mm"
   viewBox="0 0 210 297"
   version="1.1"
   id="svg8"
   inkscape:version="1.0.2-2 (e86c870879, 2021-01-15)"
   sodipodi:docname="Pinoekel_grau_60%.svg">
  <defs
     id="defs2" />
  <sodipodi:namedview
     id="base"
     pagecolor="#ffffff"
     bordercolor="#666666"
     borderopacity="1.0"
     inkscape:pageopacity="0.0"
     inkscape:pageshadow="2"
     inkscape:zoom="1.979899"
     inkscape:cx="942.24815"
     inkscape:cy="535.78948"
     inkscape:document-units="mm"
     inkscape:current-layer="layer1"
     inkscape:document-rotation="0"
     showgrid="false"
     inkscape:window-width="3840"
     inkscape:window-height="2050"
     inkscape:window-x="3828"
     inkscape:window-y="-12"
     inkscape:window-maximized="1" />
  <metadata
     id="metadata5">
    <rdf:RDF>
      <cc:Work
         rdf:about="">
        <dc:format>image/svg+xml</dc:format>
        <dc:type
           rdf:resource="http://purl.org/dc/dcmitype/StillImage" />
        <dc:title></dc:title>
      </cc:Work>
    </rdf:RDF>
  </metadata>
  <g
     inkscape:label="Ebene 1"
     inkscape:groupmode="layer"
     id="layer1">
    <path
       fill="currentColor"
       d="M 100.61258,199.55969 C 62.169147,143.82813 55.033337,138.10836 55.033337,117.62617 c 0,-28.05615 22.74384,-50.8 50.800003,-50.8 28.05615,0 50.8,22.74385 50.8,50.8 0,20.48219 -7.13582,26.20196 -45.57925,81.93352 -2.5228,3.64437 -7.91897,3.64411 -10.44151,0 z m 5.22076,-60.76685 c 11.69008,0 21.16666,-9.47658 21.16666,-21.16667 0,-11.69008 -9.47658,-21.16666 -21.16666,-21.16666 -11.690093,0 -21.166673,9.47658 -21.166673,21.16666 0,11.69009 9.47658,21.16667 21.166673,21.16667 z"
       id="path20"
       style="stroke-width:0.264583;fill:#666666" />
  </g>
</svg>
