<?xml version="1.0" encoding="UTF-8" standalone="no"?>
<svg
   xmlns:dc="http://purl.org/dc/elements/1.1/"
   xmlns:cc="http://creativecommons.org/ns#"
   xmlns:rdf="http://www.w3.org/1999/02/22-rdf-syntax-ns#"
   xmlns:svg="http://www.w3.org/2000/svg"
   xmlns="http://www.w3.org/2000/svg"
   xmlns:sodipodi="http://sodipodi.sourceforge.net/DTD/sodipodi-0.dtd"
   xmlns:inkscape="http://www.inkscape.org/namespaces/inkscape"
   width="32px"
   height="43px"
   viewBox="0 0 32 43"
   version="1.1"
   id="SVGRoot"
   sodipodi:docname="Pinoekel_grau60_43y_31x_px.svg"
   inkscape:version="1.0.2-2 (e86c870879, 2021-01-15)">
  <defs
     id="defs112" />
  <sodipodi:namedview
     id="base"
     pagecolor="#ffffff"
     bordercolor="#666666"
     borderopacity="1.0"
     inkscape:pageopacity="0.0"
     inkscape:pageshadow="2"
     inkscape:zoom="31.678384"
     inkscape:cx="20.15364"
     inkscape:cy="15.424143"
     inkscape:document-units="px"
     inkscape:current-layer="layer1"
     inkscape:document-rotation="0"
     showgrid="false"
     inkscape:window-width="3840"
     inkscape:window-height="2050"
     inkscape:window-x="-12"
     inkscape:window-y="-12"
     inkscape:window-maximized="1" />
  <metadata
     id="metadata115">
    <rdf:RDF>
      <cc:Work
         rdf:about="">
        <dc:format>image/svg+xml</dc:format>
        <dc:type
           rdf:resource="http://purl.org/dc/dcmitype/StillImage" />
        <dc:title></dc:title>
      </cc:Work>
    </rdf:RDF>
  </metadata>
  <g
     inkscape:label="Ebene 1"
     inkscape:groupmode="layer"
     id="layer1">
    <path
       fill="currentColor"
       d="M 14.400653,41.7086 C 2.4653998,24.40612 0.25,22.63035 0.25,16.27143 0.25,7.56108 7.3111109,0.5 16.0215,0.5 c 8.710389,0 15.7715,7.06108 15.7715,15.77143 0,6.35892 -2.2154,8.13469 -14.150653,25.43717 -0.783233,1.13144 -2.458541,1.13136 -3.241694,0 z M 16.0215,22.84285 c 3.629336,0 6.571459,-2.94211 6.571459,-6.57142 0,-3.62932 -2.942123,-6.57143 -6.571459,-6.57143 -3.629336,0 -6.5714596,2.94211 -6.5714596,6.57143 0,3.62931 2.9421236,6.57142 6.5714596,6.57142 z"
       id="path20"
       style="fill:#666666;stroke-width:0.082143;image-rendering:optimizeQuality" />
  </g>
</svg>
